<svg id="Layer_1" height="512" viewBox="0 0 512 512" width="512" xmlns="http://www.w3.org/2000/svg" xmlns:xlink="http://www.w3.org/1999/xlink" data-name="Layer 1"><linearGradient id="linear-gradient" gradientUnits="userSpaceOnUse" x1="76.782" x2="76.782" y1="484.869" y2="58.73"><stop offset=".322" stop-color="#a163f5"/><stop offset=".466" stop-color="#b074ee"/><stop offset=".752" stop-color="#d8a1dd"/><stop offset=".898" stop-color="#efbad3"/></linearGradient><linearGradient id="linear-gradient-2" x1="124.907" x2="124.907" xlink:href="#linear-gradient" y1="484.868" y2="58.731"/><linearGradient id="linear-gradient-3" x1="231.84" x2="231.84" xlink:href="#linear-gradient" y1="484.869" y2="58.73"/><linearGradient id="linear-gradient-4" x1="196.671" x2="196.671" xlink:href="#linear-gradient" y1="484.868" y2="58.732"/><linearGradient id="linear-gradient-5" x1="294.742" x2="294.742" xlink:href="#linear-gradient" y1="484.869" y2="58.73"/><linearGradient id="linear-gradient-6" x1="115.911" x2="115.911" xlink:href="#linear-gradient" y1="484.869" y2="58.733"/><linearGradient id="linear-gradient-7" x1="52.532" x2="52.532" xlink:href="#linear-gradient" y1="484.868" y2="58.732"/><linearGradient id="linear-gradient-8" x1="81.192" x2="81.192" xlink:href="#linear-gradient" y1="484.87" y2="58.732"/><linearGradient id="linear-gradient-9" x1="60.6" x2="60.6" xlink:href="#linear-gradient" y1="484.868" y2="58.728"/><linearGradient id="linear-gradient-10" x1="110.986" x2="110.986" xlink:href="#linear-gradient" y1="484.869" y2="58.73"/><linearGradient id="linear-gradient-11" x1="256" x2="256" xlink:href="#linear-gradient" y1="484.869" y2="58.731"/><path d="m72.8 323.219a6.145 6.145 0 0 1 -7.518.09l.08.062-7.458 9.4a18.292 18.292 0 0 0 21.954.153c1.958-1.424 5.064 2.316 5.064 2.316a6 6 0 0 0 9.464-7.379c-4.065-5.217-13.171-10.761-21.586-4.642z" fill="url(#linear-gradient)"/><path d="m127.986 367.577c1.958-1.422 5.063 2.317 5.064 2.317a6 6 0 0 0 9.463-7.379c-4.067-5.218-13.174-10.759-21.585-4.643a6.145 6.145 0 0 1 -7.518.09l.079.062-7.457 9.4a18.292 18.292 0 0 0 21.954.153z" fill="url(#linear-gradient-2)"/><path d="m212.965 398.034a18.291 18.291 0 0 0 21.954.152c1.957-1.421 5.063 2.317 5.064 2.317a6 6 0 1 0 9.463-7.379c-4.068-5.218-13.173-10.758-21.585-4.643a6.142 6.142 0 0 1 -7.518.09l.079.063z" fill="url(#linear-gradient-3)"/><path d="m199.75 346.609c1.957-1.424 5.064 2.317 5.064 2.317a6 6 0 0 0 9.464-7.379c-4.068-5.218-13.174-10.758-21.586-4.643a6.144 6.144 0 0 1 -7.518.09l.08.063-7.458 9.4a18.289 18.289 0 0 0 21.954.152z" fill="url(#linear-gradient-4)"/><path d="m297.821 353.365c1.954-1.425 5.063 2.317 5.064 2.317a6 6 0 1 0 9.464-7.377c-4.069-5.219-13.174-10.76-21.586-4.645a6.14 6.14 0 0 1 -7.518.09l.08.062-7.458 9.4a18.292 18.292 0 0 0 21.954.153z" fill="url(#linear-gradient-5)"/><path d="m71.7 402.985a6 6 0 0 0 4.827 6.979 495.278 495.278 0 0 1 75.688 20.087 6 6 0 1 0 3.991-11.317 507.312 507.312 0 0 0 -77.527-20.575 6 6 0 0 0 -6.979 4.826z" fill="url(#linear-gradient-6)"/><path d="m56.779 394.677q-3.647-.492-6.98-.888a6 6 0 0 0 -1.419 11.916q3.24.386 6.791.864a6.212 6.212 0 0 0 .812.055 6 6 0 0 0 .8-11.947z" fill="url(#linear-gradient-7)"/><path d="m40.416 89.47h68.608a18.95 18.95 0 0 0 18.944-18.913 14.875 14.875 0 0 0 -29.75 0 6 6 0 0 0 12 0 2.875 2.875 0 0 1 5.75 0 6.937 6.937 0 0 1 -6.944 6.913h-68.608a6 6 0 0 0 0 12z" fill="url(#linear-gradient-8)"/><path d="m41.39 69.614h25.476a18.949 18.949 0 0 0 18.944-18.914 14.875 14.875 0 0 0 -29.75 0 6 6 0 0 0 12 0 2.875 2.875 0 0 1 5.75 0 6.935 6.935 0 0 1 -6.944 6.912h-25.476a6 6 0 1 0 0 12z" fill="url(#linear-gradient-9)"/><path d="m105.126 112.37a26.023 26.023 0 0 0 -25.526 20.745c-3.3 1.357-6.649 4.05-10.126 8.136a26.549 26.549 0 0 0 -5.4 24.276 25.334 25.334 0 0 0 16.456 17.524 16.134 16.134 0 0 0 5.187.971h47.071a26.186 26.186 0 0 0 19.109-8.313 25.723 25.723 0 0 0 6.887-19.572 26.15 26.15 0 0 0 -23.889-24 26.7 26.7 0 0 0 -4.454.019 26.1 26.1 0 0 0 -25.315-19.786zm23.083 32.44a14.083 14.083 0 0 1 18.605 12.19 14.019 14.019 0 0 1 -14.027 15.026h-47.062a5.414 5.414 0 0 1 -1.329-.332 13.493 13.493 0 0 1 -8.754-9.348 14.566 14.566 0 0 1 2.965-13.314c4-4.7 6.018-4.952 6.047-4.954a6.755 6.755 0 0 0 6.43-6.436 14.064 14.064 0 0 1 28.106.727 6.806 6.806 0 0 0 9.019 6.445z" fill="url(#linear-gradient-10)"/><path d="m468.4 79.586a91.542 91.542 0 0 0 -13.626-6.208l28.226-17.778a6 6 0 0 0 -.432-10.4c-1.146-.595-28.348-14.433-56.322-4.416-14.423 5.164-26.233 15.616-35.229 31.137-9.246-18.467-21.54-30.237-36.662-35.042-26.423-8.394-51.1 7.974-52.14 8.674a6 6 0 0 0 .11 10.016l28.428 18.311a72.3 72.3 0 0 0 -16.792 6.756q-.822.454-1.624.923a75.47 75.47 0 1 0 -70.484 102.36c38.787 0 71.263-30.075 75.11-68.2l7.854.189a85.267 85.267 0 0 0 -7.424 12.514 106.466 106.466 0 0 0 -10.229 40.222 6 6 0 0 0 10.073 4.522l59.68-55.211-9.054 88.326c-42.173 1.589-106.749 17.05-168.735 56.205-39.333-12.421-73.374-15.665-99.1-15.389-48.95.48-78.752 13.053-80 13.588a6 6 0 0 0 -3.628 5.351l-5.4 199.211a6 6 0 0 0 7.054 6.068c1.169-.209 118.582-20.591 267.055 3.966 14.061 2.325 31.537 3.489 52.281 3.489 20.076 0 43.212-1.09 69.273-3.269 39.293-3.285 70.985-7.967 71.3-8.014a6 6 0 0 0 5.109-6.262l-12.515-228.525a6 6 0 0 0 -2.9-4.816c-.856-.514-20.526-12.144-53.754-18.2l-9.712-94.549 63.99 58.066a6 6 0 0 0 10.026-4.7 121.5 121.5 0 0 0 -11.57-43.453 97.433 97.433 0 0 0 -4.96-8.949l33.51-1.026a6 6 0 0 0 4.5-9.751 115.863 115.863 0 0 0 -31.287-25.736zm-51.669-19.9a6 6 0 0 0 10.128-6.2c1.094-.493 2.2-.952 3.336-1.36a48.008 48.008 0 0 1 7.052-1.933 6 6 0 0 0 11.867-.97 70.14 70.14 0 0 1 17.248 2.677l-27.862 17.544a69.82 69.82 0 0 0 -34.529 4.387 60.987 60.987 0 0 1 12.756-14.15zm-28.731 27.394 1.2-.454.438 4.26-3.873-.4zm-70.47-35.987a58.774 58.774 0 0 1 16.653-4.346 6 6 0 0 0 11.417 2.708l1.031-2.173a37.407 37.407 0 0 1 4.171 1.062 38.827 38.827 0 0 1 10.793 5.492l-1.156 1.564a6 6 0 1 0 9.651 7.134l.343-.464a80.623 80.623 0 0 1 11.774 19.307c-11.681-6.385-22.587-9.119-32.463-9.531zm-75.681 120.827a63.334 63.334 0 1 1 60.251-83.348 89.761 89.761 0 0 0 -16.655 17.073 6 6 0 0 0 4.776 9.432l14.711.354c-3.65 31.656-30.768 56.489-63.083 56.489zm61.434-68.532c5.922-5.783 14.935-12.85 26.42-16.715l.015.047a6 6 0 0 0 11.655-2.62 55.681 55.681 0 0 1 25.133 3.277 73.156 73.156 0 0 0 -31.276 16.776zm18.191 49.512a96.435 96.435 0 0 1 3.446-11.545 6 6 0 0 0 4.993-10.886l-.062-.034a73 73 0 0 1 4.009-6.569l.45.361a6 6 0 1 0 7.509-9.359l-.28-.225a59.255 59.255 0 0 1 5.559-4.861 5.986 5.986 0 0 0 9.96-6.2 70.142 70.142 0 0 1 21.99-6.453l-.284 2.768zm-293.194 117.482c8.976-3.167 34.661-10.92 71.857-11.285 39.671-.4 99.936 7.883 169.046 47.389a234.525 234.525 0 0 0 -40.907 5c-40.329 8.515-58.028-3.847-65.775-15.718-12-18.389-40.313-20.955-84.148-7.629a404.157 404.157 0 0 0 -51.09 19.841zm-1.38 51.066c7.64-3.715 30.5-14.414 55.079-21.873 21.41-6.5 59.035-14.781 70.475 2.746 13.846 21.215 41.654 28.638 78.3 20.9a215.419 215.419 0 0 1 60.158-4.325c44.588 3.254 57.805 12.258 61.714 17.336a9.011 9.011 0 0 1 1.823 7.63 112.527 112.527 0 0 1 -8.5 25.85 220.542 220.542 0 0 0 -25.122 11.2c-27.085 14.183-51.334 34.135-72.16 59.329-52.183-32.86-104.868-50.262-142.684-59.328-39.009-9.353-68.692-11.685-80.365-12.264zm-3.708 136.933 2.1-77.713c11.388.6 40.633 2.958 78.239 12 39.876 9.591 96.725 28.695 151.461 66.073-114.686-14.696-206.087-4.041-231.8-.36zm447.6-2c-24.66 3.369-127.495 16.363-183.722 7.062q-3.32-.549-6.619-1.067-10.74-8.259-21.648-15.555c19.531-23.368 42.149-41.9 67.316-55.125a213.225 213.225 0 0 1 69.847-22.314 221.487 221.487 0 0 1 70.128 1.224zm-36.684-159.176a6 6 0 0 0 -1.947-11.842c-2.884.474-6.5-.218-10.623-1.314l-6.358-61.9c22.3 4.476 37.654 11.526 43.578 14.559l6.658 121.546a233.6 233.6 0 0 0 -70.6-.832 230.854 230.854 0 0 0 -33.8 7.251 113.118 113.118 0 0 0 5.227-18.6 21.054 21.054 0 0 0 -4.109-17.166c-9-11.684-32.158-19.036-68.831-21.865a406.172 406.172 0 0 0 -79.415-39.542c56.543-33.644 114.091-47.394 152.736-49.163l-6.9 67.281c-5.281 1.354-9.2 2.475-10.395 2.821a6 6 0 1 0 3.342 11.526c7.207-2.09 17.246-4.649 26.513-6.513a13.192 13.192 0 0 1 4.878 4.471 40.588 40.588 0 0 0 32.338 19.177c7.842.424 11.632 1.875 11.826 1.951a6 6 0 0 0 4.746-11.022c-.547-.239-5.642-2.354-15.923-2.911a28.587 28.587 0 0 1 -22.775-13.5c-.1-.168-.223-.326-.332-.492a29.021 29.021 0 0 1 7.3.014c4.251.8 8.252 1.957 12.122 3.076 7.254 2.099 14.105 4.084 20.744 2.989zm-27.271-38.834h-1.32a6 6 0 1 0 0 12h2.553l1.052 10.243c-1.829-.459-3.709-.9-5.663-1.265-6.876-1.3-19.818.808-31.367 3.327l4.473-43.644h.605a6 6 0 0 0 .622-11.968l5.977-58.316h1.991a6 6 0 0 0 0-12h-.76l5.694-55.543 9.38 91.32h-.618a6 6 0 0 0 0 12h1.851zm56.889-105.409-61.374-55.692-.608-5.921q1.095.122 2.174.27a5.991 5.991 0 0 0 11.413 2.473 63.493 63.493 0 0 1 13.049 5.592l-.58 1.418a5.991 5.991 0 0 0 10.5 5.635 66.491 66.491 0 0 1 9.314 10.051 5.991 5.991 0 0 0 6.4 9.984c.571 1.051 1.133 2.116 1.673 3.212a106.581 106.581 0 0 1 8.039 22.978zm-10.839-48.6a74.363 74.363 0 0 0 -35.5-22.153 56.857 56.857 0 0 1 10.453-1.323 6 6 0 0 0 11.332.741 65.145 65.145 0 0 1 11.4 2.971 6 6 0 0 0 10.128 6.142l.974-1.145c.194.105.389.2.583.307a103.164 103.164 0 0 1 18.919 13.6z" fill="url(#linear-gradient-11)"/></svg>