<svg id="Layer_1" enable-background="new 0 0 512 512" height="512" viewBox="0 0 512 512" width="512" xmlns="http://www.w3.org/2000/svg" xmlns:xlink="http://www.w3.org/1999/xlink"><linearGradient id="lg1"><stop offset=".322" stop-color="#a163f5"/><stop offset=".466" stop-color="#b074ee"/><stop offset=".752" stop-color="#d8a1dd"/><stop offset=".898" stop-color="#efbad3"/></linearGradient><linearGradient id="SVGID_1_" gradientUnits="userSpaceOnUse" x1="295.759" x2="295.759" xlink:href="#lg1" y1="454" y2="97.975"/><linearGradient id="SVGID_2_" gradientUnits="userSpaceOnUse" x1="218.31" x2="218.31" xlink:href="#lg1" y1="454" y2="97.975"/><linearGradient id="SVGID_3_" gradientUnits="userSpaceOnUse" x1="183.068" x2="183.068" xlink:href="#lg1" y1="454" y2="97.975"/><linearGradient id="SVGID_4_" gradientUnits="userSpaceOnUse" x1="142.6" x2="142.6" xlink:href="#lg1" y1="454" y2="97.975"/><linearGradient id="SVGID_7_" gradientUnits="userSpaceOnUse" x1="189.85" x2="189.85" xlink:href="#lg1" y1="454" y2="97.975"/><linearGradient id="SVGID_8_" gradientUnits="userSpaceOnUse" x1="95.45" x2="95.45" xlink:href="#lg1" y1="454" y2="97.975"/><linearGradient id="SVGID_9_" gradientUnits="userSpaceOnUse" x1="175.963" x2="175.963" xlink:href="#lg1" y1="454" y2="97.975"/><linearGradient id="SVGID_10_" gradientUnits="userSpaceOnUse" x1="109.193" x2="109.193" xlink:href="#lg1" y1="454" y2="97.975"/><linearGradient id="SVGID_11_" gradientUnits="userSpaceOnUse" x1="109.3" x2="109.3" xlink:href="#lg1" y1="454" y2="97.975"/><linearGradient id="SVGID_12_" gradientUnits="userSpaceOnUse" x1="175.851" x2="175.851" xlink:href="#lg1" y1="454" y2="97.975"/><linearGradient id="SVGID_13_" gradientUnits="userSpaceOnUse" x1="255.808" x2="255.808" xlink:href="#lg1" y1="454" y2="97.975"/><g><path d="m290.3 374.2c21 5.4 30.8 13.2 30.9 13.2 2.6 2.1 6.3 1.8 8.4-.8s1.8-6.3-.8-8.4c-.5-.4-11.7-9.5-35.6-15.6-18.2-4.6-20.6-17.3-20.7-17.9-.5-3.3-3.5-5.6-6.8-5.1s-5.6 3.5-5.1 6.8c.2.8 3.2 21.1 29.7 27.8z" fill="url(#SVGID_1_)"/><path d="m212.2 237.4c2.6 2 6.4 1.6 8.4-1 1.6-2.1 3.3-4.2 4.9-6.3 2-2.6 1.5-6.4-1.1-8.4s-6.4-1.5-8.4 1.1c-1.6 2-3.1 4.1-4.8 6.2-2.1 2.5-1.6 6.3 1 8.4z" fill="url(#SVGID_2_)"/><path d="m160.6 302.7c1.7 0 3.3-.7 4.4-1.9 16.9-18.1 32-35.4 45.1-51.3 2.1-2.6 1.7-6.3-.8-8.4-2.6-2.1-6.3-1.7-8.4.8-12.9 15.8-27.9 32.8-44.6 50.8-2.3 2.4-2.1 6.2.3 8.5 1 .9 2.5 1.5 4 1.5z" fill="url(#SVGID_3_)"/><g fill="url(#SVGID_4_)"><path d="m142.6 147c14.9 0 27-12.1 27-27s-12.1-27-27-27-27 12.1-27 27 12.1 27 27 27zm0-42.1c8.3 0 15 6.7 15 15s-6.7 15-15 15-15-6.7-15-15c0-8.2 6.7-15 15-15z"/><path d="m142.6 88.5c3.3 0 6-2.7 6-6v-17.6c0-3.3-2.7-6-6-6s-6 2.7-6 6v17.6c0 3.3 2.7 6 6 6z"/><path d="m136.6 158.8v17.6c0 3.3 2.7 6 6 6s6-2.7 6-6v-17.6c0-3.3-2.7-6-6-6s-6 2.7-6 6z"/></g><path d="m175 120.6c0 3.3 2.7 6 6 6h17.7c3.3 0 6-2.7 6-6s-2.7-6-6-6h-17.7c-3.3 0-6 2.7-6 6z" fill="url(#SVGID_7_)"/><path d="m86.6 126.6h17.7c3.3 0 6-2.7 6-6s-2.7-6-6-6h-17.7c-3.3 0-6 2.7-6 6s2.7 6 6 6z" fill="url(#SVGID_8_)"/><path d="m165.5 143.4c-2.3 2.3-2.3 6.1 0 8.5l12.5 12.4c2.4 2.3 6.2 2.2 8.5-.2 2.2-2.3 2.2-6 0-8.3l-12.5-12.4c-2.4-2.4-6.2-2.3-8.5 0z" fill="url(#SVGID_9_)"/><path d="m98.8 85.5 12.5 12.4c2.4 2.3 6.2 2.2 8.5-.2 2.2-2.3 2.2-6 0-8.3l-12.5-12.4c-2.3-2.4-6.1-2.5-8.5-.2s-2.5 6.1-.2 8.5z" fill="url(#SVGID_10_)"/><path d="m111.3 143.4-12.5 12.4c-2.3 2.4-2.2 6.2.2 8.5 2.3 2.2 6 2.2 8.3 0l12.5-12.4c2.3-2.4 2.2-6.2-.2-8.5-2.3-2.2-6-2.2-8.3 0z" fill="url(#SVGID_11_)"/><path d="m169.7 99.7c1.6 0 3.1-.6 4.2-1.7l12.5-12.4c2.3-2.4 2.2-6.2-.2-8.5-2.3-2.2-6-2.2-8.3 0l-12.5 12.4c-2.3 2.3-2.4 6.1 0 8.5 1.2 1 2.7 1.7 4.3 1.7z" fill="url(#SVGID_12_)"/><path d="m496.2 258.5-54.8-58.8h25.7c8.2 0 16-3.4 21.6-9.4 5.3-6 8.1-14 7.5-22.1-1.2-14.4-12.6-25.9-27-27.1-2-.2-4-.1-5.9.1-3.5-15.9-19.2-26-35.1-22.5-11.4 2.5-20.3 11.5-22.6 22.9-8.7 1.9-16.1 8.3-20.3 15.1-10.5-.4-21.1 3.2-29.4 10.9l-39.5 39.6c-6.5-10.8-12.7-22.1-18.8-34.5-7.7-15.7-20.7-34.5-38.4-34.8-.1 0-.3 0-.4 0-14.5 0-27.8 11.9-40.8 36.4-15.2 28.7-42.5 63.1-71 95.3l-37.3-25.2c-16.7-11.2-39.2-8.6-52.9 6.2l-41.3 45.1c-3 3.3-4.7 7.5-4.7 12v114.2c0 10.9 9.9 19.5 21.2 17.4 1-.2 2-.5 3-.9 16.5-6.4 47.4-16.7 91-23.8 3.4-.6 6.9-.4 10.3.5 29.6 7.6 151.9 38.1 210.8 38.1 6 .1 11.9-.4 17.8-1.3 59.2-11.1 98.1-9.2 116.1-7 9.7 1.2 18.6-5.8 19.7-15.5.1-.7.1-1.4.1-2.1v-156.7c.2-4.5-1.5-8.8-4.6-12.1zm-85.6-105.4c3.6-.2 6.4-3 6.6-6.6.6-9.6 8.8-17 18.5-16.4 9.2.5 16.4 8.1 16.5 17.3 0 3.8 3.1 6.9 6.9 7 .8 0 1.5-.1 2.3-.4 9.1-3.1 19.1 1.7 22.2 10.9.5 1.4.8 2.8.9 4.2.4 4.8-1.3 9.5-4.6 13-3.3 3.6-8 5.6-12.8 5.6h-36.8l-16.9-18.1c-4.3-4.6-9.5-8-15.1-10.2 3.3-3.4 7.7-6.1 12.3-6.3zm-47.2 24c11.2-11.2 29.4-11.3 40.6-.1.3.2.5.5.7.8l25.8 27.7c-4 .6-8.9 1.2-14 1.5-15.5.9-26.4-1.4-30.6-6.4-8.5-10.2-21.5-13.5-31.7-14.4zm-104.3-27.3c12.7.2 23.7 19.7 27.8 28.1 7 14.4 14.9 28.4 23.4 42 24.7 39.1 102.1 133.6 139.2 162-5.8 2.6-12.1 5.1-18.9 7.4-5.6 1.9-11.8 3.8-18.5 5.6-4.7-10.5-15.1-28.7-30.8-47.9-15.5-19-40.4-44-71.6-55.8-33.8-12.8-36.2-39.3-38.8-67.4-.5-5.6-1-11.3-1.8-16.8-3.4-23.7-21.5-32.8-35.8-35.2 8.9-14.5 17.8-22.1 25.8-22zm-32.2 33.3c7.8.5 27.2 3.9 30.3 25.6.8 5.2 1.2 10.5 1.8 16.2 2.7 29.1 5.7 62 46.5 77.5 28.7 10.9 52 34.4 66.5 52.2 13.9 17.1 23.5 33.3 28.1 43.1-34.1 7.1-79.2 9-131.8-6.2-58.1-16.7-118.6-23.7-179-20.8-9.3.5-17.9 1.2-25.6 2 13.4-12.8 35.4-34.2 59.3-59.2 50.4-52.9 85.3-96.7 103.9-130.4zm-202.4 120.6 41.3-45.1c6.8-7.4 16.9-10.7 26.7-8.7-7.5 7.3-11.9 19.7-16.4 32.5-2.6 7.7-5.6 15.3-8.9 22.8-5.4 11.5-18.7 18.4-28.8 22.2-5 1.8-10.1 3.3-15.3 4.5v-24.3h-.1c0-1.4.5-2.8 1.5-3.9zm-1.5 40.5c12.6-2.4 44.1-10.7 55-33.8 3.5-7.8 6.7-15.8 9.4-23.9 6-17.1 10.4-28.1 17.8-30.7l33.7 22.8c-43.3 47.8-87.3 89-95.4 96.5-8.8 1.3-15.7 2.6-20.5 3.6zm7.8 83c-3 1.1-6.3-.3-7.4-3.3-.3-.7-.4-1.4-.4-2.1v-30.7c19.9-4.4 104-19.8 209.7 3.7-103.2-1-173.5 21.3-201.9 32.4zm456.3 4.3c-1.2 1.1-2.9 1.6-4.5 1.4-18.6-2.3-59-4.3-119.8 7.1-36.4 6.8-144.4-17.3-198.3-30.4 43.5-4 87.3-3.9 130.7.5 17.3 3.2 34.8 4.8 52.3 4.9 29.7.1 59.3-4.8 87.4-14.5 19.1-6.5 37.2-15.4 54-26.5v53.2h.1c0 1.6-.7 3.2-1.9 4.3zm1.9-72.2c-8.6 6.3-17.6 11.9-27.2 16.7-29.1-18.1-108.7-112.7-138.8-158.4l19.3-19.3c6-.5 25.1-1.3 34.4 10 7.1 8.6 20.7 11 33.9 11 10-.1 19.9-1.2 29.7-3.3l47.2 50.7c1 1.1 1.5 2.5 1.5 3.9z" fill="url(#SVGID_13_)"/></g></svg>