<svg id="Layer_1" height="512" viewBox="0 0 512 512" width="512" xmlns="http://www.w3.org/2000/svg" xmlns:xlink="http://www.w3.org/1999/xlink" data-name="Layer 1"><linearGradient id="linear-gradient" gradientUnits="userSpaceOnUse" x1="253.937" x2="253.937" y1="474" y2="78.298"><stop offset=".322" stop-color="#a163f5"/><stop offset=".466" stop-color="#b074ee"/><stop offset=".752" stop-color="#d8a1dd"/><stop offset=".898" stop-color="#efbad3"/></linearGradient><linearGradient id="linear-gradient-2" x1="64.012" x2="64.012" xlink:href="#linear-gradient" y1="474" y2="78.298"/><linearGradient id="linear-gradient-3" x1="134.524" x2="134.524" xlink:href="#linear-gradient" y1="474" y2="78.298"/><linearGradient id="linear-gradient-4" x1="256" x2="256" xlink:href="#linear-gradient" y1="474" y2="78.298"/><path d="m253.937 117.641a36.686 36.686 0 1 0 -36.686-36.685 36.727 36.727 0 0 0 36.686 36.685zm0-61.371a24.686 24.686 0 1 1 -24.686 24.686 24.714 24.714 0 0 1 24.686-24.686z" fill="url(#linear-gradient)"/><path d="m64.012 117.934a6.564 6.564 0 1 0 6.81 6.559 6.7 6.7 0 0 0 -6.81-6.559z" fill="url(#linear-gradient-2)"/><path d="m187.924 123.934a6 6 0 0 0 -6-6h-94.8a6 6 0 0 0 0 12h94.8a6 6 0 0 0 6-6z" fill="url(#linear-gradient-3)"/><path d="m487.575 447.722v-18.739a17.3 17.3 0 0 0 -17.275-17.278h-11.77v-10.775a17.292 17.292 0 0 0 -11.42-16.234l-5.31-176.945a24.8 24.8 0 0 0 23.4-24.824v-3.654h16.383a6 6 0 0 0 6-6v-46.5c0-7.419-4.276-14.1-10.657-16.67l-207-92.226a34.246 34.246 0 0 0 -27.834 0l-207 92.228c-6.381 2.573-10.657 9.251-10.657 16.67v46.5a6 6 0 0 0 6 6h11.544v3.625a24.808 24.808 0 0 0 24.681 24.889h1.324l-5.314 176.911a17.291 17.291 0 0 0 -11.421 16.23v10.775h-9.549a17.3 17.3 0 0 0 -17.278 17.278v18.739a22.7 22.7 0 0 0 -19.422 22.434v20.926a6 6 0 0 0 6 6h490a6 6 0 0 0 6-6v-20.926a22.7 22.7 0 0 0 -19.425-22.434zm-41.048-46.792v10.775h-54.314v-10.775a5.285 5.285 0 0 1 5.279-5.278h43.756a5.285 5.285 0 0 1 5.279 5.278zm-109.075-16.23-5.311-176.945a24.8 24.8 0 0 0 23.4-24.824v-3.654h15.4v3.623a24.808 24.808 0 0 0 24.682 24.891h1.324l-5.313 176.909a17.293 17.293 0 0 0 -11.421 16.234v10.775h-31.341v-10.779a17.292 17.292 0 0 0 -11.42-16.23zm-109.655 0-5.31-176.945a24.8 24.8 0 0 0 23.4-24.824v-3.654h15.405v3.623a24.808 24.808 0 0 0 24.682 24.891h1.323l-5.318 176.909a17.293 17.293 0 0 0 -11.421 16.234v10.775h-31.34v-10.779a17.291 17.291 0 0 0 -11.418-16.23zm-109.655 0-5.31-176.945a24.8 24.8 0 0 0 23.4-24.824v-3.654h15.405v3.623a24.808 24.808 0 0 0 24.682 24.891h1.325l-5.319 176.909a17.293 17.293 0 0 0 -11.425 16.23v10.775h-31.337v-10.775a17.291 17.291 0 0 0 -11.421-16.23zm58.2-188.907a12.794 12.794 0 0 1 -12.711-12.862v-3.654h70.25v3.683a12.783 12.783 0 0 1 -12.681 12.829zm39.418 187.859h-31.4l5.283-175.863h20.837zm-42.86 17.278a5.285 5.285 0 0 1 5.279-5.278h43.756a5.285 5.285 0 0 1 5.279 5.278v10.775h-54.314zm113.1-205.141a12.794 12.794 0 0 1 -12.711-12.862v-3.654h70.25v3.683a12.782 12.782 0 0 1 -12.683 12.833zm39.416 187.863h-31.4l5.284-175.863h20.838zm-42.858 17.278a5.285 5.285 0 0 1 5.279-5.278h43.756a5.285 5.285 0 0 1 5.279 5.278v10.775h-54.314zm121.113-17.278 5.283-175.863h20.838l5.278 175.863zm49.521-200.7a12.782 12.782 0 0 1 -12.682 12.834h-44.856a12.8 12.8 0 0 1 -12.711-12.862v-3.654h70.249zm-416.767-15.679v-16.206h28.7a6 6 0 0 0 0-12h-28.7v-12.29c0-2.537 1.306-4.821 3.177-5.553.085-.034.17-.069.253-.107l207.112-92.277a22.233 22.233 0 0 1 18.066 0l207.112 92.275c.083.038.168.073.253.107 1.871.732 3.177 3.016 3.177 5.553v12.293h-368.451a6 6 0 0 0 0 12h368.451v16.206zm30.264 28.516a12.793 12.793 0 0 1 -12.71-12.862v-3.654h70.249v3.683a12.783 12.783 0 0 1 -12.682 12.833zm39.416 187.863h-31.4l5.285-175.863h20.837zm-42.856 17.278a5.285 5.285 0 0 1 5.279-5.278h43.756a5.285 5.285 0 0 1 5.279 5.278v10.775h-54.314zm-26.824 28.053a5.284 5.284 0 0 1 5.278-5.278h428.597a5.284 5.284 0 0 1 5.278 5.278v18.5h-439.153zm458.575 56.099h-478v-14.926a10.682 10.682 0 0 1 10.671-10.67h456.658a10.682 10.682 0 0 1 10.671 10.67z" fill="url(#linear-gradient-4)"/></svg>