<svg id="Layer_1" height="512" viewBox="0 0 512 512" width="512" xmlns="http://www.w3.org/2000/svg" xmlns:xlink="http://www.w3.org/1999/xlink" data-name="Layer 1"><linearGradient id="linear-gradient" gradientUnits="userSpaceOnUse" x1="195.715" x2="195.715" y1="455" y2="113.029"><stop offset=".322" stop-color="#a163f5"/><stop offset=".466" stop-color="#b074ee"/><stop offset=".752" stop-color="#d8a1dd"/><stop offset=".898" stop-color="#efbad3"/></linearGradient><linearGradient id="linear-gradient-2" x1="146.609" x2="146.609" xlink:href="#linear-gradient" y1="455" y2="113.029"/><linearGradient id="linear-gradient-3" x1="256" x2="256" xlink:href="#linear-gradient" y1="455" y2="113.029"/><path d="m162.171 219.757a6 6 0 0 0 0 8.485l58.6 58.6a6 6 0 0 0 8.486-8.485l-58.6-58.6a6 6 0 0 0 -8.486 0z" fill="url(#linear-gradient)"/><path d="m149.5 198.6a6 6 0 1 0 -8.485 8.485l2.7 2.7a6 6 0 0 0 8.485-8.485z" fill="url(#linear-gradient-2)"/><path d="m433.369 194.311a42.049 42.049 0 0 0 -71.782-29.733l-13.823 13.822a100.714 100.714 0 0 0 -22.664-106.833 6 6 0 0 0 -8.378-.106l-14.759 14.039c-3.063-52.432-40.841-78.322-42.586-79.488a6 6 0 0 0 -7.577.746l-65.606 65.618a98.942 98.942 0 0 0 -21.269 106.808 5.951 5.951 0 0 0 -.418-.512l-13.6-13.6c-16.2-16.2-43.324-16.83-59.676-.78a41.8 41.8 0 0 0 -12.6 30.619 42.958 42.958 0 0 0 12.807 29.626l105.096 105.094-105.587 105.587a42.049 42.049 0 1 0 59.466 59.466l105.587-105.584 105.065 105.062a43.011 43.011 0 0 0 30.172 12.838 42.05 42.05 0 0 0 42.132-42.13 43.01 43.01 0 0 0 -12.838-30.17l-105.065-105.069 105.587-105.588a41.771 41.771 0 0 0 12.316-29.732zm-238.669-113.472 61.84-61.853a95.746 95.746 0 0 1 16.224 17.879c12.836 18.284 18.619 39.235 17.18 62.277a6 6 0 0 0 10.123 4.722l20.547-19.543a87.744 87.744 0 0 1 21.749 58.579 85.5 85.5 0 0 1 -25.431 61.092 86.989 86.989 0 0 1 -9.725 8.168 60.8 60.8 0 0 0 5.482-53.065 5.769 5.769 0 0 0 -9.489-2.095l-.351.35a5.838 5.838 0 0 0 -1.306 6.135 48.655 48.655 0 0 1 -11.427 50.984 35.436 35.436 0 0 0 -6.134-30.7l-22.963-29.541a6 6 0 0 0 -4.729-2.318h-.008a6 6 0 0 0 -4.727 2.305l-23.285 29.777a35.267 35.267 0 0 0 -6.26 31.435c-.151-.147-.309-.284-.459-.432a48.41 48.41 0 0 1 -3.565-64.032l38.514-49.263 15.86 20.4a5.761 5.761 0 0 0 8.623.538l.34-.339a5.763 5.763 0 0 0 .475-7.611l-20.553-26.44a5.983 5.983 0 0 0 -4.723-2.311h-.009a6 6 0 0 0 -4.726 2.3l-43.239 55.307a60.43 60.43 0 0 0 -5.342 66.816 86.737 86.737 0 0 1 -8.506-129.521zm48.873 158.875a60.688 60.688 0 0 0 10.441 1.165l3.718-.015a60.8 60.8 0 0 0 7.322-.705 99.045 99.045 0 0 0 27.334-6.384l-36.388 36.39-36.906-36.906a98.888 98.888 0 0 0 24.481 6.455zm-5.873-48.307 18.56-23.741 18.22 23.438a23.424 23.424 0 0 1 -2.082 30.864l-.044.045a23.215 23.215 0 0 1 -11.853 6.43 87.45 87.45 0 0 1 -9.795-.079 23.032 23.032 0 0 1 -11.3-6.117 23.313 23.313 0 0 1 -1.706-30.84zm-95.773 294.793a30.049 30.049 0 0 1 -42.495-42.5l105.588-105.584 42.495 42.5zm270.641-42.5a29.841 29.841 0 0 1 8.8 20.857 30.048 30.048 0 0 1 -51.295 21.643l-270.641-270.642a29.96 29.96 0 0 1 -8.548-25.212 29.375 29.375 0 0 1 5.208-13.332 30.091 30.091 0 0 1 45.835-3.951l14.094 14.094a5.98 5.98 0 0 0 10.168-5.027 98.758 98.758 0 0 0 19.461 28.617q3.021 3.1 6.243 5.882a5.988 5.988 0 0 0 .9 7.3zm-105.587-122.554-42.5-42.5 105.592-105.583a30.049 30.049 0 0 1 42.5 42.5z" fill="url(#linear-gradient-3)"/></svg>