<svg id="Layer_1" height="512" viewBox="0 0 512 512" width="512" xmlns="http://www.w3.org/2000/svg" xmlns:xlink="http://www.w3.org/1999/xlink" data-name="Layer 1"><linearGradient id="linear-gradient" gradientUnits="userSpaceOnUse" x1="255.5" x2="255.5" y1="443" y2="100.013"><stop offset=".322" stop-color="#a163f5"/><stop offset=".466" stop-color="#b074ee"/><stop offset=".752" stop-color="#d8a1dd"/><stop offset=".898" stop-color="#efbad3"/></linearGradient><linearGradient id="linear-gradient-2" x1="236.548" x2="236.548" xlink:href="#linear-gradient" y1="443" y2="100.013"/><linearGradient id="linear-gradient-3" x1="230.435" x2="230.435" xlink:href="#linear-gradient" y1="443" y2="100.013"/><linearGradient id="linear-gradient-4" x1="166.009" x2="166.009" xlink:href="#linear-gradient" y1="443" y2="100.013"/><linearGradient id="linear-gradient-5" x1="130.412" x2="130.412" xlink:href="#linear-gradient" y1="443" y2="100.013"/><linearGradient id="linear-gradient-6" x1="256" x2="256" xlink:href="#linear-gradient" y1="443" y2="100.013"/><linearGradient id="linear-gradient-7" x1="257.987" x2="257.987" xlink:href="#linear-gradient" y1="443" y2="100.013"/><path d="m87.919 271.369h335.162a6 6 0 0 0 6-6v-197.443a6 6 0 0 0 -6-6h-103.137l-60.174-48.594a6 6 0 0 0 -7.54 0l-60.174 48.594h-104.137a6 6 0 0 0 -6 6v197.443a6 6 0 0 0 6 6zm168.081-245.657 44.844 36.214h-89.688zm-162.081 48.214h323.162v185.443h-323.162z" fill="url(#linear-gradient)"/><path d="m236.548 135.743a25.589 25.589 0 1 0 25.59 25.589 25.619 25.619 0 0 0 -25.59-25.589zm0 39.178a13.589 13.589 0 1 1 13.59-13.589 13.605 13.605 0 0 1 -13.59 13.589z" fill="url(#linear-gradient-2)"/><path d="m267.931 111.83a6 6 0 0 0 -6-6h-62.993a6 6 0 0 0 0 12h62.993a6 6 0 0 0 6-6z" fill="url(#linear-gradient-3)"/><path d="m155.2 118.436h21.613a6 6 0 0 0 0-12h-21.613a6 6 0 0 0 0 12z" fill="url(#linear-gradient-4)"/><path d="m128.009 106.436a6 6 0 1 0 0 12h4.806a6 6 0 0 0 0-12z" fill="url(#linear-gradient-5)"/><path d="m402.771 83.237h-233.771a6 6 0 0 0 0 12h227.771v142.822h-35.292l-59.979-90.471a6 6 0 0 0 -5-2.685 6 6 0 0 0 -5 2.689l-48.934 73.951-32.949-32.293a6 6 0 0 0 -8.4 0l-49.8 48.809h-36.188v-142.822h11.771a6 6 0 0 0 0-12h-17.771a6 6 0 0 0 -6 6v154.822a6 6 0 0 0 6 6h293.542a6 6 0 0 0 6-6v-154.822a6 6 0 0 0 -6-6zm-234.207 154.822 36.853-36.123 36.853 36.123zm90.848 0-8.121-7.961 45.215-68.329 50.575 76.29z" fill="url(#linear-gradient-6)"/><path d="m497.024 313.56a29.53 29.53 0 1 0 -46.255 24.292 106.017 106.017 0 0 1 -87.969 46.605c-33.659 0-65.77-17.452-86.26-46.763v-1.186a29.528 29.528 0 1 0 -35.251 1.344 106.585 106.585 0 0 1 -175.219 1.429v-2.043a29.531 29.531 0 1 0 -35.178 0v120.762h-4.916a6 6 0 0 0 -6 6v30a6 6 0 0 0 6 6h463a6 6 0 0 0 6-6v-30a6 6 0 0 0 -6-6h-2.956v-121.492a29.439 29.439 0 0 0 11.004-22.948zm-220.48 43.384c22.54 25 53.72 39.513 86.26 39.513a117.93 117.93 0 0 0 88.036-39.245v100.788h-174.3zm-36.056-43.384a17.531 17.531 0 1 1 17.531 17.5 17.535 17.535 0 0 1 -17.531-17.5zm24.056 28.763v115.677h-11.18v-115.312a29.387 29.387 0 0 0 11.18-.365zm-198.474 16.051a118.683 118.683 0 0 0 175.294-1.162v100.788h-175.294zm-17.589-62.312a17.5 17.5 0 1 1 -17.531 17.5 17.535 17.535 0 0 1 17.531-17.5zm5.589 46.459v115.479h-11.178v-115.479a29.353 29.353 0 0 0 11.178 0zm428.906 145.479h-451v-18h451zm-20.136-30v-115.312a29.387 29.387 0 0 0 11.18-.365v115.677zm4.654-126.942a17.5 17.5 0 1 1 17.53-17.5 17.534 17.534 0 0 1 -17.53 17.5z" fill="url(#linear-gradient-7)"/></svg>