<svg id="Layer_1" enable-background="new 0 0 512 512" height="512" viewBox="0 0 512 512" width="512" xmlns="http://www.w3.org/2000/svg" xmlns:xlink="http://www.w3.org/1999/xlink"><linearGradient id="lg1"><stop offset=".322" stop-color="#a163f5"/><stop offset=".466" stop-color="#b074ee"/><stop offset=".752" stop-color="#d8a1dd"/><stop offset=".898" stop-color="#efbad3"/></linearGradient><linearGradient id="SVGID_1_" gradientUnits="userSpaceOnUse" x1="255.9" x2="255.9" xlink:href="#lg1" y1="405" y2="165.981"/><linearGradient id="SVGID_2_" gradientUnits="userSpaceOnUse" x1="344.25" x2="344.25" xlink:href="#lg1" y1="405" y2="165.981"/><linearGradient id="SVGID_3_" gradientUnits="userSpaceOnUse" x1="415.75" x2="415.75" xlink:href="#lg1" y1="405" y2="165.981"/><linearGradient id="SVGID_4_" gradientUnits="userSpaceOnUse" x1="380.45" x2="380.45" xlink:href="#lg1" y1="405" y2="165.981"/><linearGradient id="SVGID_5_" gradientUnits="userSpaceOnUse" x1="380.5" x2="380.5" xlink:href="#lg1" y1="405" y2="165.981"/><linearGradient id="SVGID_7_" gradientUnits="userSpaceOnUse" x1="441.8" x2="441.8" xlink:href="#lg1" y1="405" y2="165.981"/><linearGradient id="SVGID_8_" gradientUnits="userSpaceOnUse" x1="319.1" x2="319.1" xlink:href="#lg1" y1="405" y2="165.981"/><linearGradient id="SVGID_9_" gradientUnits="userSpaceOnUse" x1="423.844" x2="423.844" xlink:href="#lg1" y1="405" y2="165.981"/><linearGradient id="SVGID_10_" gradientUnits="userSpaceOnUse" x1="337.063" x2="337.063" xlink:href="#lg1" y1="405" y2="165.981"/><linearGradient id="SVGID_11_" gradientUnits="userSpaceOnUse" x1="337.05" x2="337.05" xlink:href="#lg1" y1="405" y2="165.981"/><linearGradient id="SVGID_12_" gradientUnits="userSpaceOnUse" x1="423.901" x2="423.901" xlink:href="#lg1" y1="405" y2="165.981"/><g><path d="m480.1 334.9h-278.3c8.6-10.9 19.2-26.6 17.2-36.5-.7-3.7-2.9-6.7-6.3-8.3-8.5-4.2-15.2-2.7-19.2-.7-3.2 1.6-5.9 4-8.1 6.8-1.9-10.6-5.3-17.9-10-22.1-4.1-3.7-9.3-5-14.9-3.9-4.1.9-7.3 3.3-9.3 7.2-1.4 2.8-5.7 11.2 4 40.4 2.1 6.5 4.5 12.5 6.3 17.1h-16.8c-.4-9-.8-25.7 1.5-37.7 2-10.5 3-27.5 3.3-44.1 4 .5 7.9.8 11.6.8 12.4 0 23.1-2.9 31.4-8.6 10.3-7.1 16.9-18.2 19.5-33 10.8-58.2 6-75-.2-83.7-5.3-7.5-12.8-9.7-20.2-11-3.6-.6-8.8-.2-13.8 4.9-13.1 13.7-14.8 55.1-10.2 76.4 1 4.6.5 8.1-1.7 10.6-3.6 4.2-11 5.7-16.6 6.1-.1-1.5-.2-2.8-.3-4-1.1-11.6.9-54.2 1.8-71.9.5-9.9-.7-19.6-3.5-28.7-8.6-27.9-24.3-28.5-32.9-26.4-12.4 3.1-21.2 14.3-21.4 27.3l-1.6 112.4c-7.8-2.7-14.4-6-15.8-8-.5-2.9-.3-10 0-16.7.9-23.1.9-41.4-8.1-49-2.3-2-6.4-4.1-12.3-2.9-7.8 1.5-14.4 6.5-19.3 14.3-10.8 17.4-11.9 47.3-3.1 80 3.7 13.5 16 28.8 53 28.8 1.6 0 3.2 0 4.8-.1l-.9 64.2h-57.9c-11.5 0-20.8 9.3-20.9 20.8v136.9c0 3.3 2.7 6 6 6h478c3.3 0 6-2.7 6-6v-136.8c.1-11.5-9.3-20.9-20.8-20.9zm-283.6-143.3c0-5.6 0-10.9.7-14.9 1.3-7.1 4.2-25.9 5.1-40.5 6.1 9.4 5.6 33.7-1.6 74.2-2 11.5-6.9 20-14.5 25.2-9.9 6.8-23.2 7.2-34.3 5.9 11.1-.6 30.1-3.5 38-15.1 6.7-9.8 6.6-23.1 6.6-34.8zm-46.6 36.1c7.2-.5 18.5-2.5 25.2-10.2 3.2-3.8 6.6-10.5 4.3-21-4.5-20.7-1.8-56.2 7.2-65.6 1.6-1.7 2.6-1.5 3.1-1.4.4.1.7.1 1 .2-.2 13-3.4 35.3-5.2 44.7-.9 5.1-.9 10.9-.9 17.1 0 10 0 21.3-4.5 28-4.6 6.7-19.2 9.5-30.2 10 0-.6 0-1.2 0-1.8zm313.8 119.2h16.4c4.9 0 8.9 4 8.9 8.8v52.1c-4.9-1.9-11.5-4.3-19.2-6.6l-18.5-44.2c6.8-4.2 10.5-7.4 12.4-10.1zm-78.8 41.5c8.6-3.5 21.1-8.8 33.5-14.5 9.1-4.1 16.4-7.7 22.3-10.9l14.4 34.4c-1.1-.2-2.2-.5-3.3-.7-20.5-4.1-37.4-3.5-50.3 1.5-3.2-1.8-9.4-5.4-16.6-9.8zm4.6 16.8c-2.9 2.4-5.4 5.1-7.6 8.2-14.2 20.6-37.7 30.5-69.8 29.3-12.3-.5-24.6-2.4-36.6-5.7l64.9-68.1c4.3 5.5 12.5 12.9 28.3 23.4 7.7 5.1 15.2 9.6 20.8 12.9zm-28.1-58.3h83.4c-6.3 3.9-16.8 9.5-34.3 17.4-16 7.2-31.6 13.5-37.9 16-16.4-11.1-21.9-17.4-23.7-20.3zm-16.5 0-29.4 30.8-38.4-30.8zm-103.3 0h16.3l49.3 39.6-12.2 12.8c-32.5-9.7-71.7-11.2-87.7-11.3l4.1-22c16.7-6.2 26.3-14.9 30.2-19.1zm-54.2-26.2c1-4.9 4.9-17.3 11.4-20.6 1.5-.8 4-1.5 8.4.6.1 1-.1 6.2-9.8 19.8-3.7 5.2-7.7 10-10.2 13.1.2-3.6.3-8 .2-12.9zm-25.5-38c.3-.7.6-.8 1-.8.5-.1 1-.2 1.4-.2 1.2 0 2.1.4 3.1 1.2 7.2 6.6 8.8 32.6 7.8 52h-.6c-7.8-17.9-16.5-44.6-12.7-52.2zm-26.4-168.3c2.4 7.8 3.4 16 2.9 24.6-1.1 22.4-2.8 61.7-1.8 73.6 1.7 18.5 1.4 63.7-2.2 82.3-2.4 12.9-2.2 30-1.8 40h-8.2c1.6-22.2 1.8-70.7 1.2-77.1-.7-7-.8-53.7 2.2-77.9 3.5-27.7-.8-66.7-2.9-82.9 3.5 2 7.4 6.7 10.6 17.4zm-79 45.4 1.2-.3c1.5-.3 1.9.1 2.2.3 5.2 4.4 4.3 27.2 3.9 39.4-.3 8.8-.6 15.7.3 20 1.8 8.6 16.3 14.5 27.3 17.8l-.1 7.4c-.6-.1-1.2-.1-1.8-.2-13.4-1.3-22.4-3-27-14.6-7.9-20.3-6.6-58-6-69.8zm-11.8 79.1c-7.1-26.3-7.3-51-.6-66.1-.3 17.5.6 44 7.2 61.1 7.6 19.5 25.3 21.1 37.1 22.3 1 .1 1.9.2 2.8.3l-.1 2.3c-19.7.7-41.7-2.5-46.4-19.9zm60.2-126.9c.1-6 3.3-11.3 8.1-14.1 2 15.1 6.3 54.1 3 80.5-3.2 25.5-3 73-2.3 80.5.5 5.1.3 54.8-1.3 76h-10.7zm118 234.9c-9.8 6.5-26.8 13.9-53 14.2-25.9.3-40.4 11.7-47.9 21.3-2.3 3-4.4 6.2-6.1 9.6-14.8-17.8-41.2-34.5-60.1-45.1zm-24.5 23-12.4 65.7c-8.2-4-16.8-7.3-25.6-9.7-21.8-6-31.8-14.9-36.4-22 2.1-7.2 11.6-30.5 46-30.8 9.6 0 19.1-1.1 28.4-3.2zm-175.4-14.1c0-4.3 3.1-7.9 7.3-8.7 4.6 2.2 18.9 9.4 34.6 19.1 3.1 1.9 6.1 3.8 8.9 5.7-12.5 4.8-33.9 10.5-50.8 14.5zm0 130.8v-87.8c13.1-3.1 47.5-11.5 62.2-18.8 3.2 2.4 6.2 4.8 8.9 7.1-7.3 6.9-13.8 14.8-19.2 23.3-10.1 15.9-21.6 41.6-20.3 76.2zm43.7.1c-.8-15.4 1.5-30.9 6.5-45.5l42.1 45.5zm65-.1v.1l-53.4-57.7c1.9-4 4.1-7.9 6.5-11.7 5.1-8.1 11.2-15.4 18.2-22 3.7 3.7 6.8 7.8 9.4 12.4 7.4 13.6 22.5 23.6 44.9 29.7 26.4 7.1 49.8 22.3 67.1 43.5l4.7 5.7zm65.4-44.9 7.8-41.7c12.9.1 49.4 1.1 80.6 9.2l-56.3 59.1c-9.3-10.5-20.1-19.4-32.1-26.6zm47.4 45-7.5-9.2 29.2-30.6c14.7 4.5 29.9 7.2 45.3 7.8 1.9.1 3.7.1 5.5.1 2.1 0 4.2 0 6.2-.1 4.9 5.2 19.4 20.7 31.8 32zm93.7-33.7c23.2-4.1 41.6-15.2 53.7-32.8 8.5-12.3 24.7-15 40.5-14 12.5 22.9 4.8 43.3.7 51.3-12.6-3-25.6-3.3-38.3-.7-13.4 2.7-26.3 7.9-37.8 15.2-6.5-6.2-13.3-13.2-18.8-19zm35.5 33.8c-2.6-2-5.1-4.1-7.6-6.2 9.6-5.7 20.1-9.7 31-11.9 24.4-4.8 46.6 1.3 66 18.1zm115.4-.1h-.1-8.5c-11.8-12.6-24-20.6-35.8-25.4 4.7-10 11.2-30.2 1.9-53.4 1 .2 2 .4 2.9.5 13.6 2.8 26.8 7 39.6 12.3z" fill="url(#SVGID_1_)"/><path d="m341 324.7h6.5c3.3 0 6-2.7 6-6s-2.7-6-6-6h-6.5c-3.3 0-6 2.7-6 6s2.7 6 6 6z" fill="url(#SVGID_2_)"/><path d="m362.6 318.7c0 3.3 2.7 6 6 6h94.3c3.3 0 6-2.7 6-6s-2.7-6-6-6h-94.3c-3.3 0-6 2.7-6 6z" fill="url(#SVGID_3_)"/><path d="m380.3 114.4h.1c16.3 0 29.5-13.2 29.6-29.4.1-16.3-13.1-29.6-29.4-29.6s-29.6 13.1-29.7 29.4 13.1 29.6 29.4 29.6zm0-47c9.7-.1 17.6 7.7 17.6 17.4.1 9.7-7.7 17.6-17.4 17.6h-.1c-9.6 0-17.4-7.8-17.5-17.4-.1-9.7 7.7-17.6 17.4-17.6z" fill="url(#SVGID_4_)"/><path d="m380.5 42.2c3.3 0 6-2.7 6-6v-22.9c0-3.3-2.7-6-6-6s-6 2.7-6 6v22.9c0 3.3 2.6 6 6 6z" fill="url(#SVGID_5_)"/><path d="m386.5 158.4v-22.9c0-3.3-2.7-6-6-6s-6 2.7-6 6v22.9c0 3.3 2.7 6 6 6s6-2.7 6-6z" fill="url(#SVGID_5_)"/><path d="m424.3 85.9c0 3.3 2.7 6 6 6h23c3.3 0 6-2.7 6-6s-2.7-6-6-6h-23c-3.3 0-6 2.6-6 6z" fill="url(#SVGID_7_)"/><path d="m307.6 91.9h23c3.3 0 6-2.7 6-6s-2.7-6-6-6h-23c-3.3 0-6 2.7-6 6s2.7 6 6 6z" fill="url(#SVGID_8_)"/><path d="m436.2 141.5c2.4-2.3 2.4-6.1.1-8.5l-.1-.1-16.3-16.2c-2.3-2.3-6.1-2.3-8.5 0-2.3 2.3-2.3 6.1 0 8.5l16.3 16.2c2.3 2.4 6.1 2.4 8.5.1z" fill="url(#SVGID_9_)"/><path d="m341 55c2.4 2.3 6.2 2.2 8.5-.2 2.2-2.3 2.2-6 0-8.3l-16.3-16.2c-2.4-2.3-6.2-2.3-8.5 0s-2.3 6.1 0 8.5z" fill="url(#SVGID_10_)"/><path d="m349.6 116.8c-2.3-2.4-6.1-2.5-8.5-.2l-.1.1-16.3 16.2c-2.4 2.3-2.5 6.1-.2 8.5s6.1 2.5 8.5.2l.1-.1 16.3-16.2c2.4-2.3 2.5-6.1.2-8.5z" fill="url(#SVGID_11_)"/><path d="m415.7 56.8c1.6 0 3.1-.6 4.2-1.7l16.3-16.2c2.4-2.3 2.5-6.1.2-8.5s-6.1-2.5-8.5-.2l-.1.1-16.3 16.2c-2.3 2.3-2.4 6.1 0 8.5 1.1 1.1 2.6 1.8 4.2 1.8z" fill="url(#SVGID_12_)"/></g></svg>