<svg id="Layer_1" height="512" viewBox="0 0 512 512" width="512" xmlns="http://www.w3.org/2000/svg" xmlns:xlink="http://www.w3.org/1999/xlink" data-name="Layer 1"><linearGradient id="linear-gradient" gradientUnits="userSpaceOnUse" x1="81.927" x2="81.927" y1="475.594" y2="62.768"><stop offset=".322" stop-color="#a163f5"/><stop offset=".466" stop-color="#b074ee"/><stop offset=".752" stop-color="#d8a1dd"/><stop offset=".898" stop-color="#efbad3"/></linearGradient><linearGradient id="linear-gradient-2" x1="158.898" x2="158.898" xlink:href="#linear-gradient" y1="475.594" y2="62.768"/><linearGradient id="linear-gradient-3" x1="171.944" x2="171.944" xlink:href="#linear-gradient" y1="475.594" y2="62.768"/><linearGradient id="linear-gradient-4" x1="256" x2="256" xlink:href="#linear-gradient" y1="475.594" y2="62.768"/><path d="m78.8 368h6.25a6 6 0 1 0 0-12h-6.25a6 6 0 0 0 0 12z" fill="url(#linear-gradient)"/><path d="m104.553 368h108.69a6 6 0 0 0 0-12h-108.69a6 6 0 0 0 0 12z" fill="url(#linear-gradient-2)"/><path d="m171.944 109.286a23.051 23.051 0 1 0 23.064 23.05 23.083 23.083 0 0 0 -23.064-23.05zm0 34.1a11.051 11.051 0 1 1 11.064-11.051 11.07 11.07 0 0 1 -11.064 11.052z" fill="url(#linear-gradient-3)"/><path d="m495 333h-35.829a6.33 6.33 0 0 0 1.829-4.33v-93.883c0-3.313-2.97-5.787-6.283-5.787h-155.657a28.382 28.382 0 0 0 -25.06 14.612v-173.618c0-3.314-3.185-5.994-6.5-5.994h-58.5a5.832 5.832 0 0 0 -5.42 3.246c-.251-.032-.5-.246-.765-.246h-61.739a6.4 6.4 0 0 0 -6.076 6.379v51.383l-27.341-6.806a5.985 5.985 0 0 0 -7.251 4.373l-48.957 196.658a6.007 6.007 0 0 0 4.383 7.272l27.114 6.741h-65.948c-3.313 0-6 2.211-6 5.524v51.953c0 3.313 2.687 5.523 6 5.523h16v46.006a6.034 6.034 0 0 0 6.045 5.994h37.541c3.314 0 6.414-2.681 6.414-5.994v-46.006h346v46.006c0 3.313 3.1 5.994 6.414 5.994h37.541a6.034 6.034 0 0 0 6.045-5.994v-46.006h16c3.313 0 6-2.21 6-5.523v-51.953c0-3.313-2.687-5.524-6-5.524zm-195.446-92h149.446v35h-80a6 6 0 0 0 0 12h80v35h-149.446c-9.766 0-18.1-7.989-17.963-17.753a17.516 17.516 0 0 1 17.469-17.247h27.94a6 6 0 0 0 0-12h-27.94a17.516 17.516 0 0 1 -17.469-17.247c-.14-9.764 8.197-17.753 17.963-17.753zm-25.554 31.9c1 3.436 4.621 6.439 7.762 8.826-3.141 2.386-6.762 5.389-7.762 8.825zm0 55.767v-8.825a29.977 29.977 0 0 0 14.769 13.158h-16.7a6.214 6.214 0 0 0 1.931-4.33zm-59-252.667h47v33h-47zm0 45h47v17h-47zm0 29h47v108h-47zm0 120h47v18h-47zm0 30h47v23h-47zm-68-221h50v156h-50zm0 168h50v27h-50zm0 39h50v37h-50zm-10.271 47h-42.224a6 6 0 0 0 1.681-2.88l38.814-156.039v154.589a6.464 6.464 0 0 0 1.729 4.33zm-26.106-201.952 21.473 5.338-7.215 28.975-21.473-5.338zm-10.114 40.619 21.472 5.338-4.681 18.822-21.473-5.338zm-35.953 144.4 28.367-113.934 21.473 5.338-28.368 113.929zm6.444 119.933h-26v-40h26zm396 0h-26v-40h26zm22-52h-466v-39h466z" fill="url(#linear-gradient-4)"/></svg>