<svg id="Layer_1" height="512" viewBox="0 0 512 512" width="512" xmlns="http://www.w3.org/2000/svg" xmlns:xlink="http://www.w3.org/1999/xlink" data-name="Layer 1"><linearGradient id="linear-gradient" gradientUnits="userSpaceOnUse" x1="185.837" x2="185.837" y1="465.194" y2="264.699"><stop offset=".322" stop-color="#a163f5"/><stop offset=".466" stop-color="#b074ee"/><stop offset=".752" stop-color="#d8a1dd"/><stop offset=".898" stop-color="#efbad3"/></linearGradient><linearGradient id="linear-gradient-2" x1="232.994" x2="232.994" xlink:href="#linear-gradient" y1="465.194" y2="264.699"/><linearGradient id="linear-gradient-3" x1="279.006" x2="279.006" xlink:href="#linear-gradient" y1="465.194" y2="264.699"/><linearGradient id="linear-gradient-4" x1="326.163" x2="326.163" xlink:href="#linear-gradient" y1="465.194" y2="264.699"/><linearGradient id="linear-gradient-5" x1="160.872" x2="160.872" xlink:href="#linear-gradient" y1="465.194" y2="264.699"/><linearGradient id="linear-gradient-6" x1="152" x2="152" xlink:href="#linear-gradient" y1="465.194" y2="264.699"/><linearGradient id="linear-gradient-7" x1="256.001" x2="256.001" xlink:href="#linear-gradient" y1="465.194" y2="264.699"/><path d="m172.675 104.147a6 6 0 0 0 12 0c0-5.046 2.184-7.322 5.49-10.766 3.936-4.1 8.834-9.2 8.834-19.076s-4.9-14.977-8.834-19.077c-3.306-3.444-5.49-5.719-5.49-10.766a6 6 0 1 0 -12 0c0 9.874 4.9 14.976 8.833 19.077 3.306 3.443 5.492 5.719 5.492 10.766s-2.185 7.322-5.491 10.766c-3.936 4.099-8.834 9.202-8.834 19.076z" fill="url(#linear-gradient)"/><path d="m219.832 104.147a6 6 0 0 0 12 0c0-5.046 2.184-7.322 5.49-10.766 3.936-4.1 8.834-9.2 8.834-19.076s-4.9-14.977-8.834-19.077c-3.306-3.444-5.49-5.719-5.49-10.766a6 6 0 1 0 -12 0c0 9.874 4.9 14.976 8.834 19.077 3.306 3.443 5.49 5.719 5.49 10.766s-2.184 7.322-5.49 10.766c-3.936 4.099-8.834 9.202-8.834 19.076z" fill="url(#linear-gradient-2)"/><path d="m265.844 104.147a6 6 0 0 0 12 0c0-5.046 2.184-7.322 5.49-10.766 3.936-4.1 8.834-9.2 8.834-19.076s-4.9-14.977-8.834-19.077c-3.306-3.444-5.49-5.719-5.49-10.766a6 6 0 1 0 -12 0c0 9.874 4.9 14.976 8.834 19.077 3.306 3.443 5.49 5.719 5.49 10.766s-2.184 7.322-5.49 10.766c-3.936 4.099-8.834 9.202-8.834 19.076z" fill="url(#linear-gradient-3)"/><path d="m313 104.147a6 6 0 0 0 12 0c0-5.046 2.185-7.322 5.491-10.766 3.935-4.1 8.833-9.2 8.833-19.076s-4.9-14.977-8.833-19.077c-3.305-3.444-5.491-5.719-5.491-10.766a6 6 0 1 0 -12 0c0 9.874 4.9 14.976 8.834 19.077 3.306 3.443 5.49 5.719 5.49 10.766s-2.184 7.322-5.49 10.766c-3.934 4.099-8.834 9.202-8.834 19.076z" fill="url(#linear-gradient-4)"/><path d="m158 273.352v-42.685a6 6 0 0 0 -12 0v42.685a109.4 109.4 0 0 0 18.784 61.561 5.938 5.938 0 0 0 8.281 1.608 6.015 6.015 0 0 0 1.667-8.332 97.449 97.449 0 0 1 -16.732-54.837z" fill="url(#linear-gradient-5)"/><path d="m152 214a6 6 0 0 0 6-6v-9.487a6 6 0 0 0 -12 0v9.487a6 6 0 0 0 6 6z" fill="url(#linear-gradient-6)"/><path d="m456.392 402h-166.066a133.562 133.562 0 0 0 74.945-52.636l47.4-19.409a71.206 71.206 0 0 0 43.913-73.112 71.6 71.6 0 0 0 -67.584-64.227v-58.389a6.087 6.087 0 0 0 -5.866-6.227h-254.268a6.087 6.087 0 0 0 -5.866 6.227v139.125a133.33 133.33 0 0 0 98.78 128.648h-165.749a5.969 5.969 0 0 0 -6 5.979 40.589 40.589 0 0 0 40.938 40.021h18.031v19.538c0 3.314 2.687 6.462 6 6.462h282c3.313 0 6-3.148 6-6.462v-19.538h18.031a40.683 40.683 0 0 0 40.938-40.584 5.25 5.25 0 0 0 -1.81-3.94 5.35 5.35 0 0 0 -3.767-1.476zm-67.392-128.648v-68.725a59.389 59.389 0 0 1 19.111 114.223l-32.8 13.4a132.281 132.281 0 0 0 13.689-58.898zm-254-133.352h242v27.486l-242-.029zm0 133.352v-93.895l242 .029v93.866c0 66.794-54.207 121.134-121 121.134s-121-54.34-121-121.134zm286.031 162.648h-238.031a6 6 0 0 0 0 12h208v14h-270v-14h22a6 6 0 0 0 0-12h-52.031c-13.9 0-25.543-9-28.312-22h386.686c-2.77 13-14.413 22-28.312 22z" fill="url(#linear-gradient-7)"/></svg>