<svg id="Layer_1" height="512" viewBox="0 0 512 512" width="512" xmlns="http://www.w3.org/2000/svg" xmlns:xlink="http://www.w3.org/1999/xlink" data-name="Layer 1"><linearGradient id="linear-gradient" gradientUnits="userSpaceOnUse" x1="324.413" x2="324.413" y1="480.757" y2="64.591"><stop offset=".322" stop-color="#a163f5"/><stop offset=".466" stop-color="#b074ee"/><stop offset=".752" stop-color="#d8a1dd"/><stop offset=".898" stop-color="#efbad3"/></linearGradient><linearGradient id="linear-gradient-2" x1="230.5" x2="230.5" xlink:href="#linear-gradient" y1="480.757" y2="64.591"/><linearGradient id="linear-gradient-3" x1="256" x2="256" xlink:href="#linear-gradient" y1="480.757" y2="64.591"/><linearGradient id="linear-gradient-4" x1="234.053" x2="234.053" xlink:href="#linear-gradient" y1="480.757" y2="64.591"/><linearGradient id="linear-gradient-5" x1="314.729" x2="314.729" xlink:href="#linear-gradient" y1="480.757" y2="64.591"/><linearGradient id="linear-gradient-6" x1="358.229" x2="358.229" xlink:href="#linear-gradient" y1="480.757" y2="64.591"/><linearGradient id="linear-gradient-7" x1="129.324" x2="129.324" xlink:href="#linear-gradient" y1="480.757" y2="64.591"/><linearGradient id="linear-gradient-8" x1="384.14" x2="384.14" xlink:href="#linear-gradient" y1="480.757" y2="64.591"/><linearGradient id="linear-gradient-9" x1="145.45" x2="145.45" xlink:href="#linear-gradient" y1="480.757" y2="64.591"/><path d="m365.992 216.052a6 6 0 0 0 .092-5.945l-30.543-55.763a6.232 6.232 0 0 0 -5.258-3.344h-42.383c-3.314 0-5.9 3.158-5.9 6.471v55.529a5.921 5.921 0 0 0 5.9 6h72.923a6 6 0 0 0 5.169-2.948zm-71.992-9.052v-44h32.736l23.942 44z" fill="url(#linear-gradient)"/><path d="m196 219h69a6 6 0 0 0 6-6v-56a6 6 0 0 0 -6-6h-69a6 6 0 0 0 -6 6v56a6 6 0 0 0 6 6zm6-56h57v44h-57z" fill="url(#linear-gradient-2)"/><path d="m502 288h-3v-38.7a16.143 16.143 0 0 0 -13.34-15.747l-87.975-15.82a6.044 6.044 0 0 1 -4.262-3.056l-39.6-73.3a17.942 17.942 0 0 0 -15.866-9.377h-210.508a18.039 18.039 0 0 0 -12.822 5.291l-53.327 53.954a17.929 17.929 0 0 0 -5.3 12.6v7.155h-7v-10.464a13.239 13.239 0 0 0 -13.54-13.536h-17.46c-7.72 0-14 5.816-14 13.536v74.928c0 7.72 6.28 13.536 14 13.536h17.46a13.239 13.239 0 0 0 13.54-13.536v-8.464h7v13h-2.29c-3.31 0-5.71 3.034-5.71 6.348v36.9a5.553 5.553 0 0 0 5.71 5.752h35.519a56.472 56.472 0 0 0 112.442 0h126.248a56.468 56.468 0 0 0 112.21 2h61.871a6 6 0 0 0 6-6v-31a6 6 0 0 0 -6-6zm-465-12a2 2 0 0 1 -2 2h-17a2 2 0 0 1 -2-2v-75a2 2 0 0 1 2-2h17a2 2 0 0 1 2 2zm19-21h-7v-32h7zm13.811 62h-9.811v-25h16.31a76.564 76.564 0 0 0 -6.499 25zm75.639 51.152a44.48 44.48 0 1 1 44.48-44.479 44.53 44.53 0 0 1 -44.48 44.479zm56.072-51.152a56.466 56.466 0 0 0 -112.144 0h-7.536a63.932 63.932 0 0 1 127.216 0zm182.618 51.152a44.48 44.48 0 1 1 44.48-44.479 44.529 44.529 0 0 1 -44.48 44.479zm56.271-49.152a56.465 56.465 0 0 0 -112.343-2h-7.536a63.924 63.924 0 0 1 127.35 2zm-56.271-71.382a75.813 75.813 0 0 0 -75.64 69.382h-87.411a75.962 75.962 0 0 0 -75.639-69.555c-25.772 0-48.572 13.555-62.3 32.555h-15.15v-76.16a6.091 6.091 0 0 1 1.851-4.211l53.262-53.917a6.113 6.113 0 0 1 4.336-1.712h210.508a5.921 5.921 0 0 1 5.28 3.075l39.581 73.339a17.883 17.883 0 0 0 12.654 9.15l88.062 15.81a4.146 4.146 0 0 1 3.466 3.926v10.7h-17.306a5.928 5.928 0 0 0 -5.694 6.207v21.793h-12.855a76.1 76.1 0 0 0 -67.005-40.382zm102.86 24.382v16h-11v-16zm9 47h-36.086a75.433 75.433 0 0 0 -3.641-19h39.727z" fill="url(#linear-gradient-3)"/><path d="m274.3 231h-80.493a6 6 0 0 0 0 12h80.493a6 6 0 0 0 0-12z" fill="url(#linear-gradient-4)"/><path d="m333.036 232h-36.614a6 6 0 0 0 0 12h36.614a6 6 0 1 0 0-12z" fill="url(#linear-gradient-5)"/><path d="m361.036 232h-5.614a6 6 0 0 0 0 12h5.614a6 6 0 1 0 0-12z" fill="url(#linear-gradient-6)"/><path d="m172.622 151h-39.291a6.244 6.244 0 0 0 -4.552 2.326l-47.679 55.645a6.061 6.061 0 0 0 1.407 9.08 6.474 6.474 0 0 0 3.474.949h24.019a6 6 0 0 0 0-12h-11.291l37.378-44h30.913v44h-17a6 6 0 0 0 0 12h22.622a6.4 6.4 0 0 0 6.378-6.378v-55.244a6.4 6.4 0 0 0 -6.378-6.378z" fill="url(#linear-gradient-7)"/><path d="m384.14 294.431a29.242 29.242 0 1 0 29.242 29.242 29.275 29.275 0 0 0 -29.242-29.242zm0 46.484a17.242 17.242 0 1 1 17.242-17.242 17.262 17.262 0 0 1 -17.242 17.242z" fill="url(#linear-gradient-8)"/><path d="m145.45 294.431a29.242 29.242 0 1 0 29.242 29.242 29.275 29.275 0 0 0 -29.242-29.242zm0 46.484a17.242 17.242 0 1 1 17.242-17.242 17.261 17.261 0 0 1 -17.242 17.242z" fill="url(#linear-gradient-9)"/></svg>