<svg id="Layer_1" height="512" viewBox="0 0 512 512" width="512" xmlns="http://www.w3.org/2000/svg" xmlns:xlink="http://www.w3.org/1999/xlink" data-name="Layer 1"><linearGradient id="linear-gradient" gradientUnits="userSpaceOnUse" x1="149.005" x2="149.005" y1="476.622" y2="71.961"><stop offset=".322" stop-color="#a163f5"/><stop offset=".466" stop-color="#b074ee"/><stop offset=".752" stop-color="#d8a1dd"/><stop offset=".898" stop-color="#efbad3"/></linearGradient><linearGradient id="linear-gradient-2" x1="114.51" x2="114.51" xlink:href="#linear-gradient" y1="476.622" y2="71.961"/><linearGradient id="linear-gradient-3" x1="256" x2="256" xlink:href="#linear-gradient" y1="476.622" y2="71.961"/><path d="m142.92 323.584a6 6 0 0 0 8.144-2.385l6.41-11.72a6 6 0 0 0 -10.528-5.758l-6.41 11.719a6 6 0 0 0 2.384 8.144z" fill="url(#linear-gradient)"/><path d="m139.8 329.3a6 6 0 0 0 -8.144 2.384l-44.82 81.916a6 6 0 1 0 10.528 5.76l44.82-81.92a6 6 0 0 0 -2.384-8.14z" fill="url(#linear-gradient-2)"/><path d="m494.36 455h-16.443l-.917-1.506v-46.494a6 6 0 0 0 -12 0v24.562l-202.161-369.498 20.985-38.354a6 6 0 1 0 -10.524-5.76l-17.3 31.613-17.3-31.613a6 6 0 0 0 -10.528 5.76l20.988 38.353-208.16 380.937v-36a6 6 0 0 0 -12 0v48h-11.36c-3.314 0-5.64 2.856-5.64 6.17v30a5.559 5.559 0 0 0 5.64 5.83h476.72a5.56 5.56 0 0 0 5.64-5.83v-30c0-3.314-2.327-6.17-5.64-6.17zm-30.122 0h-134.605l-1.073-112.662a5.963 5.963 0 0 0 -5.874-5.9l-60.686-1.233v-53.295a19.578 19.578 0 0 0 5.52.76c8.324 0 12.683-4.532 15.865-7.841 2.773-2.884 4.129-4.159 7.215-4.159s4.442 1.275 7.215 4.159c3.183 3.309 7.541 7.841 15.865 7.841s12.683-4.532 15.865-7.841c2.773-2.884 4.129-4.159 7.215-4.159s4.442 1.275 7.215 4.159c3.182 3.309 7.541 7.841 15.865 7.841a18.717 18.717 0 0 0 8.9-2.135zm-197.846-107.7 50.224 1.059.853 89.557zm47.028 107.7h-114.84l57.42-101.87zm-51.42-369.469 60.436 110.41c-.542.534-1.056 1.064-1.546 1.574-2.772 2.881-4.128 4.155-7.21 4.155s-4.442-1.275-7.215-4.159c-3.182-3.309-7.541-7.841-15.865-7.841s-12.683 4.532-15.865 7.841c-2.773 2.884-4.129 4.159-7.215 4.159-2.394 0-3.748-.771-5.52-2.454zm-12 0v104.9a19.591 19.591 0 0 0 -5.55-.762c-8.324 0-12.682 4.532-15.865 7.841-2.773 2.884-4.129 4.159-7.215 4.159s-4.442-1.275-7.215-4.16c-3.18-3.309-7.536-7.84-15.855-7.84a19.478 19.478 0 0 0 -5.758.831zm-69.8 127.525c5.23-1.356 8.446-4.685 10.889-7.225 2.774-2.886 4.13-4.161 7.215-4.161s4.433 1.274 7.2 4.156c3.182 3.31 7.54 7.844 15.866 7.844s12.683-4.532 15.865-7.841c2.773-2.884 4.129-4.159 7.215-4.159s4.437 1.275 7.221 4.175c3.17 3.3 7.511 7.825 15.849 7.825s12.683-4.532 15.865-7.841c2.773-2.884 4.129-4.159 7.215-4.159s4.442 1.275 7.215 4.159c3.183 3.309 7.541 7.841 15.865 7.841 7.42 0 11.685-3.6 14.778-6.726l34.516 63.056a6.6 6.6 0 0 1 -3.134.67c-3.086 0-4.442-1.275-7.215-4.159-3.183-3.309-7.541-7.841-15.865-7.841s-12.682 4.532-15.864 7.841c-2.774 2.884-4.13 4.159-7.216 4.159s-4.442-1.275-7.215-4.159c-3.182-3.309-7.541-7.841-15.865-7.841s-12.683 4.532-15.865 7.841c-2.773 2.884-4.129 4.159-7.215 4.159-2.938 0-4.266-1.092-7.043-3.977l-.168-.175c-3.18-3.312-7.535-7.848-15.859-7.848s-12.682 4.532-15.865 7.841c-2.773 2.884-4.129 4.159-7.215 4.159s-4.442-1.275-7.215-4.16c-3.18-3.309-7.536-7.84-15.855-7.84s-12.683 4.532-15.865 7.841c-2.773 2.884-4.129 4.159-7.215 4.159s-4.433-1.274-7.2-4.156-6.46-6.719-12.9-7.639zm307.8 271.944h-464v-18h65.5a6 6 0 0 0 0-12h-41.738l100.164-182.989a6.454 6.454 0 0 1 4.224-1.341c3.086 0 4.442 1.275 7.215 4.16 3.18 3.309 7.536 7.84 15.855 7.84s12.682-4.532 15.864-7.841c2.774-2.884 4.13-4.159 7.216-4.159s4.433 1.274 7.2 4.156c3.182 3.31 7.54 7.844 15.866 7.844s12.683-4.532 15.865-7.841c2.773-2.884 4.129-4.159 7.215-4.159 2.4 0 3.759.788 5.55 2.5v66.34l-65.196 115.49h-69.3a6 6 0 0 0 0 12h372.5z" fill="url(#linear-gradient-3)"/></svg>